# xmcd
#
# Track frame offsets:
#	225
#	16163
#	31950
#	46998
#	60419
#	77699
#	93222
#	106154
#	128424
#	144323
#
# Disc length: 2077 seconds
#
# Revision: 2
# Processed by: cddbd v1.5.2PL0 Copyright (c) Steve Scherf et al.
# Submitted via: audiograbber 1.83.01
#
DISCID=6a081a0a
DTITLE=Truckerlady Tina - Gö do schaust
DYEAR=1994
DGENRE=Country
TTITLE0=Gö, do schaust
TTITLE1=Countrywalzer
TTITLE2=Es hat si net ergeben
TTITLE3=Heut suach i ma an Millionär
TTITLE4=Gib mir no a Chance
TTITLE5=Und dann nimm i mei Gitar
TTITLE6=Wia a Highwayman
TTITLE7=Manchmal hob i den Blues
TTITLE8=Wann du mi nur willst
TTITLE9=Net mit mir
EXTD=
EXTT0=
EXTT1=
EXTT2=
EXTT3=
EXTT4=
EXTT5=
EXTT6=
EXTT7=
EXTT8=
EXTT9=
PLAYORDER=
